<svg xmlns="http://www.w3.org/2000/svg" viewBox="0 0 36.76 8.8"><defs><style>.cls-1{fill:#f66;}.cls-2{fill:#fff;}</style></defs><title>Fichier 3</title><g id="Calque_2" data-name="Calque 2"><g id="Calque_1-2" data-name="Calque 1"><rect class="cls-1" x="28.09" y="0.13" width="8.67" height="8.67" rx="0.8"/><path class="cls-1" d="M4.55,4A.61.61,0,0,1,4,4.61a1.23,1.23,0,0,1-.52-.17,1.59,1.59,0,0,0-.7-.13A1.66,1.66,0,0,0,1.31,6a1.49,1.49,0,0,0,1.45,1.6,1.64,1.64,0,0,0,.9-.24,1,1,0,0,1,.48-.18c.3,0,.53.36.53.66a.55.55,0,0,1-.23.43,2.59,2.59,0,0,1-1.69.51A2.65,2.65,0,0,1,0,6.14a3,3,0,0,1,2.84-3,2.64,2.64,0,0,1,1.44.38A.54.54,0,0,1,4.55,4Z"/><path class="cls-1" d="M5.6,3.17a.47.47,0,0,1,.51.43l0,.66A1.84,1.84,0,0,1,7.79,3.12c.42,0,.63.18.63.62s-.15.63-.54.63h-.2c-.79,0-1.45.69-1.45,1.89,0,.6,0,1.26,0,1.93,0,.4-.29.55-.67.55S4.92,8.58,4.93,8c0-.92,0-2.1,0-2.95,0-.41,0-.85,0-1.27S5.2,3.17,5.6,3.17Z"/><path class="cls-1" d="M11.42,3.18A2.64,2.64,0,0,1,13.64,6,2.8,2.8,0,0,1,10.73,8.8,2.66,2.66,0,0,1,8,6.13a2.87,2.87,0,0,1,3.06-3A.73.73,0,0,1,11.42,3.18Zm-.6,1.08c-.91,0-1.51.73-1.51,1.87A1.47,1.47,0,0,0,10.7,7.65a1.65,1.65,0,0,0,1.63-1.74A1.55,1.55,0,0,0,10.82,4.26Z"/><path class="cls-1" d="M13.57,3.68c0-.33.43-.54.75-.54a.49.49,0,0,1,.55.42c.07.23.63,2.56.92,3.53.4-1,.8-2.21,1.26-3.48a.74.74,0,0,1,1.37.12l1.24,3.32.68-2.54a7.83,7.83,0,0,1,.25-.92.5.5,0,0,1,.55-.39c.32,0,.72.22.73.54a1,1,0,0,1,0,.23c-.15.44-.7,2.31-1,3.2-.17.52-.26.83-.36,1.06a.69.69,0,0,1-.77.51A.71.71,0,0,1,19,8.19c-.35-.79-.91-2.43-1.24-3.28L16.61,7.84c-.22.62-.4.93-.94.93s-.68-.27-.82-.66c-.65-2.15-1-3.6-1.25-4.3A.28.28,0,0,1,13.57,3.68Z"/><path class="cls-1" d="M27.44,3.38c0,.84,0,1.61,0,2.47,0,.51,0,1.08,0,2.34a.54.54,0,0,1-.62.58.53.53,0,0,1-.58-.46l0-.54a2.06,2.06,0,0,1-1.78,1A2.6,2.6,0,0,1,21.82,6.1a2.81,2.81,0,0,1,2.79-2.95,1.82,1.82,0,0,1,1.54.78l0-3.21c0-.48.23-.72.65-.72s.7.16.68.61ZM24.61,7.64A1.55,1.55,0,0,0,26.17,6a1.52,1.52,0,0,0-1.48-1.68,1.63,1.63,0,0,0-1.56,1.77A1.53,1.53,0,0,0,24.61,7.64Z"/><path class="cls-2" d="M29.54,2.19a.37.37,0,0,1,.41.35l0,.55a1.54,1.54,0,0,1,1.35-.94c.35,0,.53.15.53.51a.46.46,0,0,1-.45.52h-.17c-.65,0-1.2.57-1.2,1.56,0,.5,0,1,0,1.6,0,.32-.23.45-.55.45S29,6.65,29,6.19c0-.77,0-1.74,0-2.44,0-.34,0-.7,0-1S29.2,2.19,29.54,2.19Z"/><path class="cls-2" d="M32.53,3.18a.44.44,0,0,1-.44-.5c0-.29.16-.47.58-.47l1.73,0c.3,0,.59,0,.89,0s.43.1.47.29a.7.7,0,0,1,0,.29,2.09,2.09,0,0,1-.49.78c-.57.68-1.17,1.35-1.75,2l-.18.22,1.43,0,.62,0a.44.44,0,0,1,.47.48c0,.28-.13.5-.53.51l-.73,0c-.43,0-1.06,0-1.89,0-.43,0-.65-.15-.65-.55a1.73,1.73,0,0,1,.56-1l1.83-2.09h-.37C33.6,3.15,33.08,3.19,32.53,3.18Z"/></g></g></svg>